<?xml version="1.0" standalone="no"?>
<!DOCTYPE svg PUBLIC "-//W3C//DTD SVG 20010904//EN"
 "http://www.w3.org/TR/2001/REC-SVG-20010904/DTD/svg10.dtd">
<svg version="1.0" xmlns="http://www.w3.org/2000/svg"
 width="503.000000pt" height="535.000000pt" viewBox="0 0 503.000000 535.000000"
 preserveAspectRatio="xMidYMid meet">

<g transform="translate(0.000000,535.000000) scale(0.100000,-0.100000)"
fill="#000000" stroke="none">
<path d="M0 2675 l0 -2675 2515 0 2515 0 0 2675 0 2675 -2515 0 -2515 0 0
-2675z m2789 2450 c250 -28 536 -95 767 -180 218 -80 493 -233 648 -361 87
-72 86 -70 33 -156 -26 -41 -47 -80 -47 -86 0 -5 39 -41 88 -78 119 -93 285
-261 360 -365 88 -124 163 -278 135 -279 -5 0 -92 23 -194 51 -103 29 -193 49
-202 46 -12 -4 -15 -29 -16 -133 -1 -70 -4 -130 -6 -134 -2 -4 -9 -49 -15
-101 -18 -154 -24 -160 -71 -67 -109 215 -287 409 -521 567 -77 51 -286 161
-306 161 -28 0 -18 28 43 120 36 56 63 105 60 111 -10 15 -168 92 -295 142
-203 81 -348 106 -666 114 -334 8 -527 -12 -731 -78 -134 -43 -383 -154 -398
-178 -3 -6 25 -55 61 -111 39 -58 64 -104 58 -109 -5 -4 -38 -20 -74 -35 -84
-37 -246 -132 -335 -199 -167 -123 -349 -336 -436 -509 -46 -91 -51 -84 -70
92 -16 147 -16 144 -18 253 -1 91 -2 97 -22 97 -22 0 -138 -30 -292 -74 -48
-15 -92 -26 -97 -26 -18 0 -11 29 25 100 100 198 246 368 467 543 49 38 88 74
88 80 0 5 -22 45 -50 88 l-49 78 57 51 c147 132 472 315 702 395 228 79 506
145 718 169 160 19 439 19 601 1z m-167 -990 c29 -4 57 -10 61 -12 5 -3 -10
-25 -33 -48 -42 -43 -42 -43 -36 -99 4 -31 5 -56 1 -56 -3 0 -23 9 -45 20 -49
25 -59 25 -115 -2 -24 -12 -46 -20 -49 -17 -2 2 1 28 7 57 l11 52 -43 44 c-24
24 -39 46 -34 49 4 2 31 8 59 12 50 6 51 7 78 63 l28 57 29 -57 c28 -55 29
-56 81 -63z m-429 -13 c44 -4 46 -10 11 -43 -22 -20 -25 -30 -21 -66 5 -47 -1
-51 -39 -26 -23 15 -28 15 -60 0 -49 -24 -52 -22 -47 26 4 36 1 46 -21 66 -34
32 -33 41 6 41 32 0 68 24 68 45 0 6 5 16 12 23 9 9 16 3 33 -26 17 -31 27
-38 58 -40z m733 56 c11 -39 35 -58 71 -58 40 0 41 -9 7 -41 -22 -20 -25 -30
-21 -66 5 -47 -1 -51 -42 -27 -25 15 -30 15 -59 0 -49 -25 -55 -22 -48 28 6
41 5 46 -18 62 -37 24 -33 42 12 46 31 3 40 9 57 40 23 44 31 47 41 16z
m-1052 -443 c89 -30 177 -55 195 -55 18 0 67 9 109 19 188 48 422 52 611 11
136 -29 169 -26 323 25 171 57 266 73 350 57 114 -21 323 -139 435 -245 95
-90 214 -294 273 -467 30 -89 38 -217 16 -273 -22 -56 -53 -76 -134 -89 -78
-12 -89 -19 -113 -75 -37 -87 -93 -80 -128 15 -36 101 -71 153 -158 240 -90
90 -87 93 35 36 40 -18 70 -29 66 -23 -12 20 -114 80 -192 113 -132 56 -298
88 -213 40 187 -105 335 -219 385 -297 54 -85 80 -193 56 -237 -5 -10 -42 -36
-82 -58 -40 -22 -111 -72 -157 -111 -46 -39 -87 -71 -91 -71 -11 0 -38 27 -50
51 -6 10 -14 19 -18 19 -4 0 -16 -38 -26 -84 -10 -46 -21 -89 -26 -95 -4 -7
-35 -19 -70 -27 -90 -21 -184 -68 -198 -99 -16 -35 -15 -51 9 -168 27 -132 23
-340 -9 -428 -37 -103 -87 -179 -118 -179 -23 0 -24 17 -8 87 25 107 4 379
-30 386 -8 2 -216 -437 -216 -455 0 -5 13 -8 29 -8 38 0 76 -31 111 -94 25
-42 30 -62 30 -118 0 -80 -8 -104 -52 -153 -46 -54 -118 -85 -193 -84 -150 0
-226 71 -360 335 -57 114 -72 154 -106 295 -22 90 -44 175 -49 189 -5 14 -14
39 -21 55 l-11 30 -16 -30 c-22 -41 -29 -273 -12 -356 15 -71 6 -90 -34 -71
-38 17 -83 106 -107 210 -18 78 -21 112 -16 220 3 70 13 159 22 198 13 57 14
79 5 113 -14 51 -32 64 -162 108 -56 19 -106 39 -109 45 -4 6 -15 49 -25 95
-9 45 -20 83 -23 83 -3 0 -19 -16 -34 -35 -15 -19 -33 -35 -40 -35 -7 0 -44
29 -82 64 -39 36 -97 80 -129 98 -33 18 -75 48 -94 66 -34 32 -35 34 -28 90 8
70 43 144 97 206 45 51 173 146 292 217 43 26 74 50 68 53 -28 18 -256 -63
-351 -124 -79 -51 -79 -63 1 -25 92 44 125 47 77 8 -84 -70 -166 -185 -199
-279 -25 -71 -35 -84 -64 -84 -26 0 -45 20 -74 77 -22 45 -26 46 -115 62 -97
18 -121 41 -136 137 -16 94 22 248 95 394 116 231 238 356 455 465 209 106
277 108 534 20z m3033 -1328 c-1 -45 -3 -5 -3 88 0 94 2 130 3 82 2 -48 2
-125 0 -170z m-359 217 c34 -24 30 -89 -8 -142 -17 -23 -27 -42 -23 -43 5 -1
17 -2 28 -3 13 0 21 -9 23 -23 3 -22 0 -23 -57 -23 -57 0 -61 2 -61 23 0 12
16 44 35 71 33 47 46 96 25 96 -5 0 -10 -9 -10 -21 0 -16 -5 -20 -27 -17 -25
3 -28 7 -25 33 5 37 17 53 45 58 12 2 24 5 27 6 3 0 16 -6 28 -15z m-4096 -21
c27 -24 23 -73 -11 -124 -33 -48 -32 -59 5 -59 17 0 24 -5 24 -20 0 -18 -7
-20 -66 -20 -66 0 -66 0 -60 26 4 14 23 49 42 77 19 28 34 60 32 71 -4 28 -22
27 -26 -1 -5 -33 -52 -33 -52 0 0 58 69 89 112 50z m4245 5 c6 -7 11 -52 11
-100 1 -99 -9 -118 -62 -118 -41 0 -56 15 -56 57 0 27 4 33 21 33 12 0 23 -8
26 -20 3 -11 9 -20 14 -20 12 0 11 47 -1 55 -5 3 -10 17 -10 31 0 13 5 24 10
24 6 0 10 8 10 17 0 13 -3 14 -12 5 -19 -19 -58 -15 -58 6 0 10 5 23 12 30 16
16 83 15 95 0z m-4099 -10 c8 -8 12 -46 12 -105 0 -100 -7 -113 -62 -113 -51
0 -63 21 -63 113 0 56 4 89 14 100 16 20 81 23 99 5z m232 -730 c151 -267 405
-494 707 -634 43 -19 79 -37 81 -39 2 -2 -26 -47 -62 -102 -77 -114 -82 -101
64 -170 187 -89 319 -132 500 -165 52 -9 167 -13 375 -13 343 1 456 15 644 80
109 38 344 145 354 162 3 5 -21 50 -54 101 -32 50 -59 96 -59 101 0 5 47 32
104 60 295 142 568 397 695 649 60 119 63 109 97 -345 5 -69 7 -73 27 -67 12
3 99 27 192 53 200 57 199 58 136 -67 -82 -162 -252 -358 -446 -511 -44 -35
-81 -64 -82 -65 -2 -1 19 -38 46 -82 27 -43 46 -84 43 -91 -4 -6 -37 -35 -73
-65 -202 -165 -467 -302 -769 -396 -78 -25 -289 -77 -345 -86 -421 -69 -599
-71 -965 -10 -112 19 -362 81 -475 120 -190 64 -418 176 -574 282 -77 52 -187
142 -194 158 -3 6 15 42 39 80 24 38 44 76 44 85 0 9 -12 25 -27 35 -96 62
-279 237 -370 354 -87 113 -176 280 -159 298 4 3 35 -2 69 -11 185 -52 317
-85 320 -79 2 4 4 45 6 92 1 79 28 339 36 368 9 26 24 9 75 -80z"/>
<path d="M2315 5114 c-495 -49 -924 -180 -1272 -388 -134 -80 -294 -200 -292
-220 0 -6 13 -30 27 -54 15 -23 83 -132 152 -242 68 -110 127 -200 130 -200 4
0 38 25 76 55 211 170 529 333 774 398 177 48 283 59 575 59 285 1 418 -11
590 -54 230 -57 589 -241 794 -406 35 -29 68 -52 72 -52 8 0 300 466 306 490
9 33 -253 217 -447 315 -243 123 -585 226 -915 275 -134 20 -468 34 -570 24z
m60 -141 c4 -21 13 -72 20 -113 20 -104 23 -182 8 -187 -7 -3 -16 12 -22 34
-18 65 -24 69 -65 49 -29 -14 -36 -23 -36 -45 0 -32 -27 -50 -37 -25 -11 30
19 277 37 299 11 13 34 21 72 24 12 1 19 -9 23 -36z m263 22 c29 -9 56 -24 62
-35 28 -53 -12 -154 -68 -166 -49 -10 -52 -13 -52 -43 0 -32 -18 -81 -31 -81
-8 0 -11 319 -3 332 8 12 34 10 92 -7z m-528 -193 c11 -106 10 -114 -9 -140
-15 -22 -29 -29 -58 -30 -34 -1 -41 3 -57 29 -16 28 -17 33 -3 46 14 14 18 13
38 -6 33 -30 49 -27 49 12 0 47 -26 161 -46 202 -19 40 -16 45 29 61 32 11 32
10 39 -25 4 -20 12 -87 18 -149z m872 63 c-4 -111 -17 -234 -26 -243 -9 -9
-17 4 -18 29 -1 37 -19 79 -34 79 -30 0 -65 -21 -74 -45 -12 -32 -30 -32 -30
0 0 27 36 142 50 160 4 6 10 21 13 35 4 14 15 39 26 56 16 27 25 31 57 30 l39
-1 -3 -100z m34 7 c-11 -10 -14 3 -8 33 l7 30 3 -28 c2 -16 1 -31 -2 -35z
m-1190 -37 c36 -82 84 -212 84 -227 0 -23 -32 -3 -52 32 -13 22 -29 40 -37 40
-24 0 -59 -46 -55 -72 3 -13 0 -30 -5 -38 -24 -35 -47 37 -56 172 -2 36 -5 70
-6 75 -6 36 3 64 25 73 13 5 27 14 31 20 15 25 37 1 71 -75z m1386 79 c4 -3
-3 -33 -14 -66 -20 -60 -20 -61 -2 -75 30 -22 47 -11 59 38 7 26 15 52 19 58
7 11 56 16 56 6 0 -2 -11 -33 -25 -67 -51 -132 -75 -197 -75 -205 -1 -15 -39
-58 -46 -51 -4 4 -1 28 6 53 10 35 10 52 1 71 -17 39 -42 26 -58 -31 -16 -55
-26 -70 -41 -61 -10 6 5 86 26 136 5 14 15 53 21 88 16 87 27 112 49 112 10 0
21 -3 24 -6z m-465 -48 c-18 -46 -60 -96 -85 -101 -15 -4 -35 -10 -44 -16 -14
-7 -18 -5 -18 6 0 8 9 15 21 15 33 0 53 16 84 64 27 43 54 63 42 32z m583
-102 c-17 -43 -38 -93 -46 -111 -8 -17 -14 -36 -14 -42 0 -24 -41 -91 -55 -91
-19 0 -19 16 0 24 8 3 15 12 15 19 0 8 6 20 14 26 8 6 16 26 19 44 4 30 36
115 74 197 29 65 24 14 -7 -66z m-323 54 c-3 -8 -6 -5 -6 6 -1 11 2 17 5 13 3
-3 4 -12 1 -19z m-1470 -41 c11 -23 24 -58 28 -77 4 -19 20 -66 37 -103 32
-74 32 -91 -1 -58 -12 12 -25 21 -30 21 -4 0 -22 32 -39 70 -17 39 -36 70 -42
70 -14 0 -4 -96 16 -155 8 -22 14 -46 14 -52 0 -22 -20 -14 -29 10 -15 38 -92
137 -107 137 -8 0 -14 -2 -14 -4 0 -6 50 -127 61 -148 5 -10 9 -27 9 -39 0
-40 -33 -15 -65 49 -17 35 -36 67 -42 70 -5 4 -22 34 -37 67 l-27 60 28 22
c42 34 69 30 98 -17 38 -60 53 -53 49 24 -5 74 0 81 67 95 3 0 14 -18 26 -42z
m1987 22 c35 -20 35 -21 21 -50 -9 -16 -22 -29 -29 -29 -20 0 -96 -164 -96
-207 0 -27 -20 -38 -55 -29 -32 8 -32 31 -1 52 31 19 90 167 81 201 -6 24 19
83 35 83 5 0 25 -9 44 -21z m-1383 -26 c-9 -16 -10 -14 -11 12 0 21 3 26 11
18 8 -8 8 -16 0 -30z m864 -65 c-10 -101 -31 -149 -49 -119 -3 5 1 11 8 14 9
4 17 26 21 54 11 87 16 113 21 113 3 0 3 -28 -1 -62z m573 21 c-6 -17 -21 -35
-33 -41 -15 -7 -33 -34 -51 -77 -28 -69 -40 -88 -49 -80 -2 3 11 41 30 84 22
52 41 82 55 87 12 4 26 21 31 38 6 16 15 28 19 25 5 -3 4 -19 -2 -36z m-1238
2 c0 -5 -7 -11 -15 -15 -8 -3 -15 -16 -15 -30 0 -24 -23 -56 -41 -56 -15 0
-10 14 11 33 11 9 20 28 20 41 0 22 10 33 33 35 4 1 7 -3 7 -8z m255 -68 c-10
-18 -22 -33 -27 -33 -12 0 -10 9 14 52 27 47 39 29 13 -19z m305 37 c0 -5 -6
-10 -13 -10 -7 0 -20 -15 -28 -32 -9 -21 -22 -34 -37 -36 l-23 -3 26 25 c14
14 25 32 25 40 0 8 10 17 23 19 12 2 23 5 25 6 1 0 2 -3 2 -9z m861 -22 c27
-17 49 -39 49 -47 0 -18 -47 -91 -58 -91 -5 0 -13 5 -18 10 -18 18 -40 1 -68
-48 -30 -55 -76 -112 -76 -96 0 22 30 96 51 125 16 23 19 33 10 42 -29 29 6
137 46 137 8 0 37 -14 64 -32z m-1611 0 c0 -25 -44 -87 -55 -77 -5 5 44 98 53
99 1 0 2 -10 2 -22z m290 -33 c-7 -8 -17 -12 -22 -9 -5 3 -1 15 9 26 20 22 32
6 13 -17z m721 2 c-10 -9 -11 -8 -5 6 3 10 9 15 12 12 3 -3 0 -11 -7 -18z
m-1347 -18 c-12 -13 -20 -16 -22 -9 -3 7 2 16 9 21 25 16 32 9 13 -12z m2036
-3 c0 -15 -24 -62 -46 -92 -40 -52 -47 -30 -8 27 19 28 34 55 34 60 0 5 5 9
10 9 6 0 10 -2 10 -4z m-1793 -22 c-3 -3 -12 -4 -19 -1 -8 3 -5 6 6 6 11 1 17
-2 13 -5z m-117 -19 c0 -17 -27 -32 -37 -21 -4 3 2 13 13 21 24 18 24 18 24 0z
m-140 -17 c-1 -21 -28 -50 -40 -43 -7 4 -3 15 12 31 27 28 28 28 28 12z m1336
-13 c-3 -9 -11 -13 -16 -10 -8 5 -7 11 1 21 14 18 24 11 15 -11z m560 -85
c-17 -33 -35 -60 -41 -60 -5 0 -18 -14 -27 -30 -9 -17 -24 -30 -33 -30 -12 0
-8 10 16 40 18 22 36 40 40 40 4 0 9 10 13 23 9 34 45 89 55 83 5 -3 -5 -33
-23 -66z m-2036 31 c0 -6 -4 -13 -10 -16 -5 -3 -10 1 -10 9 0 9 5 16 10 16 6
0 10 -4 10 -9z m1800 -7 c0 -18 -23 -44 -40 -44 -17 0 -17 1 3 25 21 23 37 32
37 19z m-1910 -24 c0 -11 -7 -20 -15 -20 -13 0 -13 3 -3 20 7 11 14 20 15 20
2 0 3 -9 3 -20z m-80 -49 c0 -17 -27 -37 -37 -27 -4 4 28 46 34 46 2 0 3 -9 3
-19z m-130 -85 c0 -16 -28 -42 -36 -33 -7 6 18 47 28 47 5 0 8 -6 8 -14z
m2420 -56 c0 -5 -2 -10 -4 -10 -3 0 -8 5 -11 10 -3 6 -1 10 4 10 6 0 11 -4 11
-10z m38 -22 c-3 -7 -13 -15 -24 -17 -16 -3 -17 -1 -5 13 16 19 34 21 29 4z"/>
<path d="M2296 4922 c-3 -5 -8 -28 -12 -52 -6 -35 -4 -45 11 -57 11 -7 27 -13
37 -13 14 0 18 8 18 40 0 63 -34 114 -54 82z m15 -85 c-8 -8 -11 -5 -11 9 0
27 14 41 18 19 2 -9 -1 -22 -7 -28z"/>
<path d="M2589 4933 c-1 -5 -2 -28 -3 -52 -2 -37 1 -45 22 -54 20 -9 27 -8 38
8 28 38 9 105 -31 105 -14 0 -25 -3 -26 -7z m36 -23 c-3 -5 -11 -10 -16 -10
-6 0 -7 5 -4 10 3 6 11 10 16 10 6 0 7 -4 4 -10z"/>
<path d="M2880 4853 c-24 -54 -22 -63 14 -82 32 -18 44 -8 46 39 4 87 -30 111
-60 43z m21 -46 c-17 -17 -24 -1 -10 25 12 21 14 21 17 4 2 -10 -1 -23 -7 -29z"/>
<path d="M1737 4823 c-2 -5 -2 -29 1 -56 4 -49 28 -75 58 -63 19 7 18 26 -6
80 -17 41 -42 59 -53 39z m30 -65 c-3 -7 -5 -2 -5 12 0 14 2 19 5 13 2 -7 2
-19 0 -25z"/>
<path d="M734 4241 c-95 -73 -258 -234 -321 -316 -72 -93 -168 -257 -157 -268
3 -3 38 4 77 15 207 60 319 85 322 74 2 -6 6 -70 9 -142 6 -155 25 -314 37
-314 5 0 18 18 29 41 112 219 372 470 637 615 57 31 102 58 101 59 -2 2 -95
-6 -208 -17 -197 -18 -206 -18 -218 -1 -8 10 -56 85 -106 168 -51 82 -98 151
-103 152 -6 2 -50 -27 -99 -66z"/>
<path d="M4147 4288 c-112 -180 -178 -286 -189 -301 -12 -17 -22 -17 -218 2
-113 10 -207 17 -209 15 -1 -1 25 -17 59 -34 269 -136 535 -383 670 -622 17
-32 35 -58 40 -58 10 0 28 155 36 320 3 74 8 138 10 142 4 6 162 -33 327 -81
79 -23 81 -20 36 65 -56 104 -132 206 -234 313 -93 96 -286 261 -306 261 -5 0
-15 -10 -22 -22z"/>
<path d="M1388 4209 c-26 -15 -23 -23 30 -99 44 -65 50 -69 85 -70 20 0 37 2
37 5 0 14 -114 175 -124 175 -6 0 -19 -5 -28 -11z"/>
<path d="M3517 4135 c-32 -47 -57 -87 -57 -89 0 -7 59 -13 68 -7 17 12 102
133 102 147 0 13 -29 34 -48 34 -5 0 -34 -38 -65 -85z"/>
<path d="M1299 4151 l-23 -19 39 -56 c37 -54 40 -56 74 -50 20 4 38 8 40 10 7
7 -83 134 -95 134 -7 0 -22 -8 -35 -19z"/>
<path d="M3611 4104 c-24 -35 -42 -66 -40 -68 2 -2 21 -6 41 -10 37 -7 38 -6
75 50 l37 56 -23 19 c-13 11 -28 19 -35 19 -6 0 -31 -30 -55 -66z"/>
<path d="M1223 4101 c-28 -23 -28 -39 -3 -70 17 -19 26 -22 55 -17 19 4 35 11
35 15 0 8 -58 91 -63 91 -1 -1 -12 -9 -24 -19z"/>
<path d="M3720 4079 c-36 -50 -37 -55 -7 -63 40 -11 52 -6 70 23 22 37 21 42
-8 64 -24 17 -25 17 -55 -24z"/>
<path d="M1136 4034 c-35 -31 -30 -38 24 -27 l42 8 -18 22 -19 22 -29 -25z"/>
<path d="M3811 4031 c-9 -16 -6 -19 31 -25 51 -8 58 -2 27 23 -30 26 -46 26
-58 2z"/>
<path d="M1522 3740 c-122 -26 -354 -178 -443 -291 l-34 -44 59 48 c60 48 154
103 163 94 2 -3 -11 -27 -30 -54 -40 -56 -101 -173 -90 -173 5 1 37 42 73 91
58 82 176 196 189 184 3 -3 -11 -22 -31 -43 -37 -40 -61 -73 -97 -137 l-22
-40 27 35 c51 63 122 129 165 151 60 30 120 23 200 -25 34 -20 63 -35 65 -33
2 2 -23 23 -56 47 -33 24 -60 45 -60 46 0 4 29 -7 105 -41 76 -34 113 -69 121
-114 3 -20 8 -45 11 -56 l6 -20 8 20 c4 11 8 43 8 72 l1 52 -95 47 c-52 27
-95 51 -95 55 0 3 24 -2 53 -12 64 -22 99 -23 163 -4 27 8 50 15 52 15 2 0 -8
-15 -22 -33 -53 -70 -52 -153 3 -284 l31 -71 -35 -74 c-20 -41 -38 -97 -41
-125 -7 -58 10 -100 80 -202 60 -85 86 -164 86 -265 1 -90 15 -87 26 5 4 40 0
71 -14 117 -11 34 -19 62 -17 62 1 0 15 -18 29 -41 15 -22 30 -39 33 -36 11
12 -12 53 -56 100 -46 50 -46 50 -16 43 17 -4 42 -16 57 -26 36 -26 38 -26 38
14 0 40 -12 51 -39 36 -27 -14 -47 -4 -70 36 -11 19 -28 34 -38 34 -16 1 -16
2 2 16 14 11 33 14 65 10 l45 -6 -22 19 c-13 11 -23 24 -23 29 0 5 -7 15 -15
22 -28 23 -8 22 29 -2 23 -15 46 -43 64 -78 25 -51 27 -64 27 -175 -1 -111 -3
-128 -37 -225 -31 -89 -68 -217 -68 -233 0 -2 18 -4 39 -3 24 0 47 -6 58 -17
11 -9 23 -17 26 -17 4 0 7 39 7 88 0 93 8 162 19 162 4 0 8 -51 10 -113 1 -63
6 -127 10 -143 9 -29 9 -29 18 -6 7 19 11 10 22 -53 8 -41 17 -78 21 -80 4 -3
16 5 26 16 37 40 95 62 179 67 94 5 146 -7 206 -48 54 -37 59 -37 60 -2 0 15
6 45 14 67 12 38 13 39 14 11 1 -21 4 -27 11 -20 6 6 14 75 17 153 7 167 22
175 30 16 5 -92 8 -105 22 -99 9 4 35 9 59 12 26 2 42 9 42 17 0 30 -32 148
-64 238 -49 134 -61 210 -46 293 6 37 20 84 30 104 22 43 74 90 98 90 13 0 11
-5 -8 -21 l-25 -21 28 6 c15 4 27 2 27 -3 0 -4 -12 -11 -27 -14 -31 -6 -71
-32 -62 -41 3 -3 21 0 41 6 38 11 88 4 88 -12 0 -6 -9 -10 -20 -10 -11 0 -20
-6 -20 -12 0 -7 -9 -24 -19 -37 -15 -19 -27 -24 -60 -23 -41 2 -41 1 -41 -33
0 -34 12 -46 25 -25 8 12 85 53 85 45 0 -3 -18 -29 -39 -58 -22 -29 -42 -65
-46 -82 -6 -27 -4 -26 20 13 29 46 54 58 32 15 -20 -39 -28 -103 -21 -157 10
-72 21 -54 26 42 5 100 24 150 107 277 l53 80 -4 70 c-3 49 -12 88 -32 132
l-29 63 28 86 c49 153 46 220 -11 284 l-35 38 51 -19 c60 -23 97 -24 169 -5
66 18 60 12 -37 -39 l-77 -40 -3 -82 c-3 -95 12 -112 23 -25 11 90 23 103 171
167 58 24 58 24 33 2 -14 -12 -41 -34 -60 -50 -29 -23 -22 -21 44 13 50 26 91
40 116 40 57 0 134 -44 196 -113 30 -33 55 -57 55 -53 0 11 -67 113 -79 120
-13 9 -34 46 -26 46 17 0 133 -124 182 -193 30 -43 57 -76 60 -74 5 5 -70 143
-110 201 -14 22 -24 42 -22 44 6 6 139 -73 155 -93 7 -9 22 -21 32 -26 17 -9
18 -8 10 8 -27 48 -168 159 -296 232 -152 86 -249 91 -459 22 -195 -63 -211
-65 -341 -39 -93 19 -143 23 -316 23 -188 0 -214 -3 -319 -27 -132 -32 -131
-32 -335 37 -141 47 -244 62 -324 45z m1173 -129 c33 -12 64 -27 70 -33 7 -8
5 -9 -10 -4 -147 53 -381 53 -519 0 -13 -5 -17 -4 -13 4 7 10 107 46 157 56
14 2 77 3 140 1 85 -2 131 -9 175 -24z m292 -61 c42 -48 57 -153 34 -237 -7
-24 -13 -43 -14 -43 -2 0 -3 44 -2 98 0 84 -3 104 -24 145 -14 26 -33 55 -43
64 -10 9 -18 21 -18 26 0 10 41 -22 67 -53z m-923 35 c-4 -8 -9 -15 -13 -15
-3 0 -19 -21 -36 -48 -28 -44 -30 -53 -29 -145 1 -103 -6 -112 -25 -35 -15 63
-14 102 4 146 23 53 118 148 99 97z m491 -5 c13 -6 -9 -9 -65 -9 -56 0 -78 3
-65 9 11 5 40 9 65 9 25 0 54 -4 65 -9z m-603 -61 c-14 -28 -26 -69 -26 -94
-1 -54 -16 -48 -16 7 0 25 10 59 27 89 35 65 47 63 15 -2z m1108 -19 c11 -22
20 -56 19 -77 l-1 -38 -12 50 c-7 28 -20 65 -30 84 -10 18 -13 30 -7 26 6 -3
20 -24 31 -45z m-830 -18 c-56 -39 -120 -93 -120 -102 0 -5 24 6 54 25 58 37
134 71 142 63 2 -3 -23 -22 -57 -43 -137 -85 -253 -224 -310 -372 l-30 -78 5
56 c4 57 28 114 92 220 29 48 34 66 34 117 0 45 5 66 20 83 l19 24 1 -33 0
-33 31 22 c36 25 120 68 134 68 6 0 -1 -8 -15 -17z m630 -42 c46 -37 54 -37
48 -5 -4 17 -1 25 8 25 15 0 21 -21 27 -95 3 -37 16 -72 51 -133 52 -89 79
-155 90 -214 9 -47 -10 -51 -19 -5 -29 135 -165 311 -320 411 -38 26 -63 46
-55 46 23 -1 95 -35 146 -70 59 -41 67 -32 12 14 -24 19 -56 47 -73 61 l-30
26 38 -16 c21 -8 56 -28 77 -45z m-673 -383 c8 -16 12 -31 10 -33 -5 -6 -77
90 -77 102 0 13 51 -40 67 -69z m646 15 c-40 -54 -49 -60 -34 -21 9 25 61 82
68 75 2 -2 -13 -26 -34 -54z m-191 -90 c4 -4 -62 -7 -147 -7 -145 0 -189 8
-100 18 54 7 238 -2 247 -11z m-438 -14 c26 -24 46 -78 28 -78 -5 0 -13 11
-16 25 -3 13 -23 36 -43 50 -32 21 -34 25 -16 25 12 0 33 -10 47 -22z m609 -4
c-18 -14 -37 -33 -43 -42 -9 -16 -9 -16 -10 1 0 23 44 67 67 67 14 0 10 -6
-14 -26z m-613 -165 c0 -54 -4 -99 -9 -99 -4 0 -11 44 -14 98 -3 53 -9 108
-12 122 l-7 25 21 -24 c18 -20 21 -36 21 -122z m618 63 c-14 -83 -32 -86 -22
-4 6 51 21 89 31 79 2 -2 -2 -36 -9 -75z m-184 9 c41 -16 28 -23 -19 -10 -40
11 -211 7 -252 -6 -14 -5 -23 -3 -23 3 0 29 227 39 294 13z m-59 -41 c13 -6
-15 -9 -80 -9 -65 0 -93 3 -80 9 11 5 47 9 80 9 33 0 69 -4 80 -9z m-30 -49
c12 -5 -4 -8 -45 -9 -43 0 -59 2 -50 8 18 11 67 12 95 1z m252 -33 c-3 -7 -5
-2 -5 12 0 14 2 19 5 13 2 -7 2 -19 0 -25z m-127 -35 c36 -16 71 -37 78 -46 9
-11 -6 -6 -45 13 -131 65 -277 67 -408 3 l-50 -24 30 26 c84 71 271 85 395 28z
m137 -35 c-3 -7 -5 -2 -5 12 0 14 2 19 5 13 2 -7 2 -19 0 -25z m-212 -13 l50
-15 -88 6 c-94 6 -187 -2 -187 -17 0 -5 12 -6 26 -3 18 5 25 3 20 -4 -3 -6
-21 -13 -39 -17 -17 -4 -51 -18 -75 -32 -24 -14 -45 -23 -48 -20 -2 2 17 23
43 47 73 66 187 87 298 55z m108 -61 c47 -34 36 -40 -21 -12 -30 15 -61 28
-68 28 -7 0 -15 4 -18 8 -10 16 80 -4 107 -24z m-48 -69 l40 -15 -45 8 c-58 9
-230 9 -295 0 -40 -6 -45 -6 -25 3 72 31 249 33 325 4z m0 -49 c40 -16 40 -16
5 -8 -48 10 -266 9 -315 -2 -57 -12 -39 1 26 19 68 19 226 14 284 -9z m3 -82
c29 -9 51 -18 50 -20 -2 -1 -49 4 -106 13 -90 13 -113 13 -199 0 -54 -8 -107
-18 -118 -21 -11 -4 0 3 25 15 84 39 245 45 348 13z m-25 -45 c57 -16 39 -21
-29 -8 -54 10 -181 7 -259 -6 -28 -5 -29 -5 -6 5 67 29 208 34 294 9z m-18
-51 c14 -6 5 -7 -29 -3 -27 3 -79 6 -115 6 -56 1 -61 3 -31 9 40 9 145 2 175
-12z m2 -88 c14 -9 14 -10 2 -6 -44 13 -158 17 -203 6 -27 -6 -51 -9 -53 -6
-3 2 15 9 39 15 53 13 190 7 215 -9z"/>
<path d="M1420 3241 c-131 -48 -253 -101 -339 -147 -91 -50 -110 -71 -31 -36
84 37 167 59 260 67 l75 7 -80 -60 c-74 -56 -197 -172 -183 -172 3 0 48 31
100 70 140 105 329 192 466 215 59 10 54 28 -5 21 -27 -3 -95 -8 -152 -12 -97
-5 -104 -4 -91 11 8 9 39 30 69 45 79 41 36 36 -89 -9z"/>
<path d="M3460 3266 c0 -1 23 -17 50 -34 48 -30 70 -62 33 -47 -10 4 -74 9
-143 11 l-125 5 100 -30 c130 -40 280 -115 385 -195 47 -35 87 -62 90 -60 6 7
-114 118 -184 170 l-58 44 33 0 c54 -1 178 -26 243 -49 33 -11 61 -19 63 -17
13 13 -203 112 -367 167 -120 41 -120 41 -120 35z"/>
<path d="M1650 2977 c-71 -26 -170 -82 -231 -131 -63 -52 -126 -122 -118 -131
3 -2 46 28 95 68 116 95 168 130 256 172 70 34 69 47 -2 22z"/>
<path d="M3365 2943 c111 -61 264 -173 288 -210 4 -7 13 -13 18 -13 18 0 -72
101 -131 147 -62 49 -163 101 -212 109 -26 4 -19 -2 37 -33z"/>
<path d="M2015 2900 c-3 -5 1 -10 10 -10 9 0 13 5 10 10 -3 6 -8 10 -10 10 -2
0 -7 -4 -10 -10z"/>
<path d="M3253 2902 c-38 -6 -25 -22 17 -22 91 0 193 -74 245 -178 33 -66 43
-61 20 10 -40 124 -164 207 -282 190z"/>
<path d="M1600 2883 c-51 -21 -99 -71 -126 -128 -34 -73 -31 -102 5 -40 52 90
154 164 228 165 17 0 35 5 38 10 10 16 -105 10 -145 -7z"/>
<path d="M2960 2890 c0 -5 5 -10 10 -10 6 0 10 5 10 10 0 6 -4 10 -10 10 -5 0
-10 -4 -10 -10z"/>
<path d="M1653 2796 c-56 -18 -97 -49 -133 -102 -30 -42 -64 -123 -56 -131 2
-2 22 26 46 61 23 36 59 81 80 100 40 36 122 66 182 66 25 0 29 3 18 10 -21
13 -87 11 -137 -4z"/>
<path d="M3210 2800 c-11 -7 -3 -10 31 -10 81 0 184 -68 248 -164 14 -21 27
-33 29 -27 6 19 -52 113 -92 147 -60 51 -176 80 -216 54z"/>
<path d="M1881 2608 c-54 -26 -115 -111 -141 -196 -27 -86 -24 -109 5 -45 33
73 74 130 140 195 62 61 61 78 -4 46z"/>
<path d="M3050 2625 c0 -4 34 -43 75 -87 48 -51 85 -101 103 -141 16 -34 34
-73 40 -87 11 -24 11 -24 6 5 -33 170 -104 280 -201 310 -13 3 -23 3 -23 0z"/>
<path d="M3310 2625 c0 -3 13 -26 29 -52 15 -27 41 -81 57 -122 31 -82 44 -81
20 2 -18 63 -106 205 -106 172z"/>
<path d="M1622 2557 c-35 -58 -66 -140 -60 -159 2 -6 17 19 32 58 15 38 38 88
51 112 34 60 15 52 -23 -11z"/>
<path d="M2056 2223 c-24 -49 -94 -265 -112 -348 -22 -104 -22 -278 0 -368 13
-55 50 -147 59 -147 1 0 2 66 2 148 0 126 3 158 23 221 23 72 75 194 141 330
l31 64 -31 49 c-26 41 -71 78 -93 78 -3 0 -12 -12 -20 -27z"/>
<path d="M2868 2221 c-18 -16 -42 -45 -52 -65 l-19 -36 46 -98 c126 -264 170
-438 148 -587 -5 -38 -8 -71 -6 -73 7 -8 44 75 61 139 25 95 22 277 -6 399
-23 98 -81 274 -106 322 -18 35 -26 35 -66 -1z m159 -663 c-2 -29 -3 -8 -3 47
0 55 1 79 3 53 2 -26 2 -71 0 -100z"/>
<path d="M2427 2160 c-47 -12 -95 -36 -124 -63 -17 -15 -23 -32 -23 -64 0 -24
4 -43 9 -43 5 0 29 11 54 25 96 54 228 50 318 -9 22 -15 43 -25 46 -23 2 3 7
24 10 47 5 33 2 45 -17 65 -49 52 -189 85 -273 65z m152 -26 c2 -2 -23 -4 -56
-4 -33 0 -76 -3 -94 -6 -19 -4 -31 -3 -27 1 18 19 158 26 177 9z m25 -54 c36
-11 68 -26 72 -32 5 -8 1 -9 -12 -3 -92 39 -230 44 -309 11 -22 -10 -35 -12
-28 -5 20 20 116 48 164 49 26 0 76 -9 113 -20z"/>
<path d="M2435 2034 c-74 -18 -145 -64 -145 -93 0 -29 8 -29 62 -2 44 22 65
26 143 26 78 0 99 -4 143 -26 56 -28 68 -25 53 14 -20 51 -177 101 -256 81z
m130 -34 c13 -5 -11 -8 -65 -7 -54 0 -76 3 -60 8 34 10 100 9 125 -1z"/>
<path d="M2411 1940 c-53 -11 -89 -34 -100 -63 -13 -33 -4 -37 42 -20 24 9 76
16 122 17 68 1 89 -3 139 -26 32 -16 60 -28 62 -28 2 0 4 13 4 28 0 32 -30 65
-72 81 -41 15 -147 21 -197 11z"/>
<path d="M2370 1842 c-45 -14 -56 -22 -59 -42 -2 -14 2 -103 9 -198 11 -150
15 -175 32 -186 18 -13 18 -14 -1 -19 -17 -4 -19 -11 -14 -48 18 -158 76 -349
105 -349 7 0 36 18 64 39 56 42 74 40 74 -8 0 -24 1 -24 14 -5 14 18 15 18 25
-9 6 -15 16 -26 23 -25 6 2 15 -10 19 -27 7 -30 7 -30 8 -3 1 31 25 58 51 58
10 0 26 10 34 21 10 15 21 20 36 16 20 -5 21 -4 6 12 -11 12 -13 20 -5 28 15
15 0 109 -23 138 -20 25 -58 34 -58 14 0 -6 14 -27 30 -46 40 -45 40 -85 1
-124 -41 -41 -92 -40 -131 1 -55 59 -53 229 4 450 19 74 31 138 28 142 -15 14
-133 38 -192 38 -38 0 -59 4 -55 10 13 21 171 3 227 -26 32 -17 35 -13 44 53
l6 51 -53 28 c-70 35 -170 42 -249 16z m180 -42 c35 -11 -71 -12 -125 -1 -36
8 -33 9 30 9 39 0 81 -4 95 -8z m19 -39 c9 -6 -9 -7 -50 -4 -35 3 -66 7 -68 9
-10 9 105 3 118 -5z m-14 -92 c12 -5 -8 -6 -50 -3 -38 4 -74 11 -80 16 -12 11
99 0 130 -13z m-122 -26 c-13 -2 -33 -2 -45 0 -13 2 -3 4 22 4 25 0 35 -2 23
-4z m90 -10 c-13 -2 -33 -2 -45 0 -13 2 -3 4 22 4 25 0 35 -2 23 -4z m42 -33
c25 -6 21 -8 -25 -8 -30 -1 -73 3 -95 7 -37 8 -35 9 25 9 36 0 79 -4 95 -8z
m-16 -36 c9 -8 -135 -2 -154 6 -12 5 14 6 65 3 47 -3 87 -7 89 -9z m-25 -34
c27 0 47 -3 43 -6 -10 -10 -151 -6 -177 6 -21 9 -15 10 30 5 30 -3 77 -5 104
-5z m-4 -50 c0 -11 -60 -11 -105 0 -23 6 -15 8 38 9 39 1 67 -3 67 -9z m30
-40 c-33 -11 -130 -11 -155 0 -13 6 16 8 80 8 65 0 91 -3 75 -8z m-67 -47
c-13 -2 -33 -2 -45 0 -13 2 -3 4 22 4 25 0 35 -2 23 -4z m47 -23 c-8 -5 -42
-10 -75 -10 -33 0 -67 5 -75 10 -10 7 13 10 75 10 62 0 85 -3 75 -10z m-25
-30 c-11 -5 -38 -9 -60 -9 -22 0 -49 4 -60 9 -13 6 7 9 60 9 53 0 73 -3 60 -9z
m-44 -42 c-30 -7 -47 -6 -54 1 -8 8 4 11 44 10 l54 -1 -44 -10z m52 -19 c-7
-7 -36 -13 -65 -15 l-53 -3 60 13 c33 8 62 14 65 15 2 1 -1 -4 -7 -10z m2 -38
c-7 -12 -88 -25 -107 -18 -7 2 7 9 32 15 59 13 82 14 75 3z m-20 -40 c-31 -13
-91 -24 -83 -16 8 8 63 23 88 23 9 1 7 -3 -5 -7z m35 -16 c0 -10 -61 -35 -86
-35 -37 0 -25 9 33 25 26 7 49 14 51 14 1 1 2 -1 2 -4z m20 -78 c0 -16 -48
-61 -74 -71 -16 -5 -17 -4 -6 9 10 12 10 15 -1 15 -9 1 -7 6 6 16 19 15 18 16
-12 9 -18 -4 -33 -4 -33 -1 0 10 64 34 93 35 16 1 27 -4 27 -12z"/>
<path d="M2651 1210 c-26 -57 -26 -92 -1 -115 38 -34 99 7 86 59 -3 12 -14 30
-24 41 -10 11 -23 29 -30 40 -10 18 -12 16 -31 -25z"/>
<path d="M2472 999 c-13 -5 -22 -15 -20 -21 8 -23 33 -19 45 7 12 27 10 28
-25 14z"/>
<path d="M540 2500 c0 -40 4 -70 10 -70 6 0 10 30 10 70 0 40 -4 70 -10 70 -6
0 -10 -30 -10 -70z"/>
<path d="M766 1858 c-12 -77 -25 -252 -26 -325 0 -39 -4 -74 -8 -77 -8 -5 -95
17 -274 69 -48 14 -89 25 -92 25 -25 0 33 -113 117 -229 34 -47 107 -131 162
-186 102 -102 249 -220 263 -211 4 2 50 74 102 160 52 85 100 157 105 159 6 2
96 -4 200 -14 105 -9 192 -15 193 -14 2 2 -20 16 -50 31 -105 53 -283 180
-377 269 -112 107 -191 204 -252 308 -24 42 -47 77 -50 77 -4 0 -10 -19 -13
-42z"/>
<path d="M4173 1841 c-118 -214 -391 -469 -635 -592 -33 -17 -58 -32 -57 -33
4 -3 276 19 350 29 l47 5 102 -165 103 -164 30 17 c94 55 310 266 402 393 64
88 130 212 116 217 -6 2 -48 -8 -93 -21 -46 -13 -112 -32 -148 -42 -36 -9 -78
-21 -94 -26 -15 -5 -32 -6 -37 -3 -5 3 -9 52 -9 110 0 58 -4 135 -10 172 -5
37 -12 88 -15 115 -4 26 -9 47 -13 47 -4 0 -21 -27 -39 -59z"/>
<path d="M1185 1196 c35 -30 39 -31 55 -11 17 20 13 23 -40 31 l-45 6 30 -26z"/>
<path d="M3763 1213 c-27 -5 -29 -16 -8 -33 12 -10 20 -9 40 4 44 29 31 41
-32 29z"/>
<path d="M1086 1158 c-20 -29 -87 -136 -150 -238 -133 -215 -134 -184 9 -290
261 -195 591 -334 993 -421 473 -101 947 -74 1432 83 294 95 587 250 749 395
l53 48 -142 230 c-78 127 -146 234 -150 239 -5 5 -51 -23 -107 -66 -124 -94
-234 -160 -404 -242 -190 -92 -317 -131 -514 -161 -146 -22 -580 -20 -754 4
-266 36 -640 207 -890 405 -36 29 -71 56 -78 59 -8 5 -25 -11 -47 -45z m648
-420 c44 -29 52 -50 35 -102 -18 -56 -38 -86 -65 -96 -17 -7 -23 -20 -29 -59
-8 -58 -20 -58 -35 -1 -12 46 -31 51 -55 14 -25 -39 -27 -25 -5 47 11 35 20
74 20 86 0 25 44 113 63 125 19 12 33 9 71 -14z m1623 7 c12 -9 22 -29 25 -49
4 -32 2 -35 -17 -30 -25 6 -50 -18 -42 -40 4 -9 28 -25 54 -38 57 -27 76 -58
61 -100 -12 -33 -65 -62 -85 -45 -18 13 -5 29 18 22 23 -8 37 20 22 44 -12 19
-62 49 -85 50 -21 1 -58 60 -58 93 0 45 20 84 48 95 37 15 35 15 59 -2z m50
-57 c-3 -8 -6 -5 -6 6 -1 11 2 17 5 13 3 -3 4 -12 1 -19z m-1621 -100 c-16
-32 -37 -59 -55 -70 -19 -10 -31 -26 -34 -45 -4 -27 -4 -27 -6 4 -1 24 5 35
21 44 33 18 55 48 75 103 10 27 19 42 21 33 2 -9 -8 -40 -22 -69z m277 65 c12
-7 -1 -52 -24 -81 -10 -14 -19 -35 -19 -47 0 -12 -7 -42 -16 -66 -9 -24 -16
-61 -15 -81 0 -37 -2 -38 -35 -38 -37 0 -43 13 -18 41 22 24 49 178 35 200 -9
15 -7 38 5 77 3 9 14 11 41 6 21 -4 42 -9 46 -11z m1002 -35 c25 -62 28 -104
9 -136 -17 -29 -16 -31 10 -77 14 -27 24 -50 21 -53 -3 -3 -23 9 -44 26 -47
38 -63 40 -61 10 7 -86 -10 -84 -35 4 -9 34 -23 71 -30 82 -7 12 -16 47 -20
79 -9 79 7 97 82 97 51 0 55 -2 68 -32z m295 22 c0 -5 -5 -10 -11 -10 -5 0 -7
5 -4 10 3 6 8 10 11 10 2 0 4 -4 4 -10z m60 6 c0 -3 -4 -8 -10 -11 -5 -3 -10
-1 -10 4 0 6 5 11 10 11 6 0 10 -2 10 -4z m-1326 -43 c-4 -16 -18 -41 -31 -56
-20 -25 -23 -26 -23 -9 0 11 7 23 15 26 9 3 21 19 26 36 14 38 22 39 13 3z
m227 -3 c39 -11 54 -32 68 -98 9 -41 2 -94 -15 -124 -21 -37 -73 -86 -96 -91
-23 -6 -26 -3 -31 26 -9 59 4 264 18 287 8 12 11 12 56 0z m401 -38 l3 -48
-45 1 c-44 0 -45 -1 -48 -34 -4 -37 9 -51 46 -51 34 0 25 -34 -11 -38 -23 -3
-27 -8 -27 -33 0 -34 31 -52 68 -38 35 13 28 -17 -9 -35 -28 -14 -34 -14 -60
0 -25 13 -29 20 -29 58 0 23 -6 63 -13 87 -8 27 -11 67 -8 104 l6 60 55 6 c30
3 58 6 62 7 3 1 8 -20 10 -46z m-1285 -38 c-3 -3 -12 -4 -19 -1 -8 3 -5 6 6 6
11 1 17 -2 13 -5z m2163 -30 c-18 -21 -24 -10 -8 15 7 12 14 17 16 11 2 -6 -2
-17 -8 -26z m-2135 7 c-3 -6 -11 -11 -17 -11 -6 0 -6 6 2 15 14 17 26 13 15
-4z m1646 -24 c-6 -15 -15 -27 -21 -27 -7 0 -7 6 -1 18 5 9 13 26 16 37 4 11
9 15 11 9 3 -6 0 -23 -5 -37z m-1080 -37 c-11 -30 -20 -48 -20 -39 -1 21 32
116 36 103 2 -5 -5 -34 -16 -64z m626 28 c-3 -7 -5 -2 -5 12 0 14 2 19 5 13 2
-7 2 -19 0 -25z m98 22 c3 -5 1 -10 -4 -10 -6 0 -11 5 -11 10 0 6 2 10 4 10 3
0 8 -4 11 -10z m706 -33 c-6 -15 -15 -27 -20 -27 -4 0 -1 16 8 36 18 39 27 32
12 -9z m-1866 -7 c-10 -11 -20 -18 -23 -15 -7 6 18 35 31 35 5 0 2 -9 -8 -20z
m820 -56 c-6 -36 -77 -124 -98 -124 -6 0 7 19 29 43 42 44 63 83 65 120 0 12
3 16 6 9 3 -7 2 -29 -2 -48z m-715 21 c0 -8 -4 -15 -10 -15 -5 0 -7 7 -4 15 4
8 8 15 10 15 2 0 4 -7 4 -15z m1720 11 c0 -3 -4 -8 -10 -11 -5 -3 -10 -1 -10
4 0 6 5 11 10 11 6 0 10 -2 10 -4z m-694 -42 c-4 -9 -9 -15 -11 -12 -3 3 -3
13 1 22 4 9 9 15 11 12 3 -3 3 -13 -1 -22z m-916 2 c0 -11 -19 -15 -25 -6 -3
5 1 10 9 10 9 0 16 -2 16 -4z m1460 -11 c-7 -8 -17 -15 -22 -15 -6 0 -5 7 2
15 7 8 17 15 22 15 6 0 5 -7 -2 -15z m-1435 -14 c-3 -6 -14 -11 -23 -11 -13 0
-13 2 4 14 21 15 30 14 19 -3z m1191 -59 c-11 -10 -14 3 -7 38 l6 35 3 -33 c2
-19 1 -36 -2 -40z m-1010 22 c-4 -9 -9 -15 -11 -12 -3 3 -3 13 1 22 4 9 9 15
11 12 3 -3 3 -13 -1 -22z m1124 16 c0 -5 -5 -10 -11 -10 -5 0 -7 5 -4 10 3 6
8 10 11 10 2 0 4 -4 4 -10z m-384 -56 c-3 -8 -10 -14 -15 -14 -5 0 -4 13 2 31
8 21 13 26 15 14 2 -9 1 -23 -2 -31z m-601 7 c-3 -6 -11 -11 -17 -11 -6 0 -6
6 2 15 14 17 26 13 15 -4z m739 5 c-5 -14 -34 -31 -34 -20 0 8 24 33 32 34 4
0 5 -6 2 -14z m-394 -10 c0 -3 -4 -8 -10 -11 -5 -3 -10 -1 -10 4 0 6 5 11 10
11 6 0 10 -2 10 -4z m25 -25 c-3 -6 -11 -11 -17 -11 -6 0 -6 6 2 15 14 17 26
13 15 -4z m190 -1 c-3 -5 -11 -10 -16 -10 -6 0 -7 5 -4 10 3 6 11 10 16 10 6
0 7 -4 4 -10z"/>
<path d="M1655 647 c-27 -66 -28 -84 -6 -90 16 -4 28 3 46 27 27 36 32 65 13
84 -20 20 -38 13 -53 -21z m26 -20 c-8 -8 -11 -7 -11 4 0 20 13 34 18 19 3 -7
-1 -17 -7 -23z"/>
<path d="M2970 565 c0 -38 25 -104 41 -108 10 -3 20 -2 23 1 11 11 5 87 -8
105 -16 21 -56 23 -56 2z"/>
<path d="M2287 503 c-3 -4 -6 -39 -8 -78 -4 -69 -4 -70 21 -70 20 0 26 8 39
48 14 44 13 49 -5 74 -22 29 -39 39 -47 26z m12 -97 c-9 -8 -10 -5 -5 14 3 14
6 32 7 40 1 8 4 2 6 -14 3 -16 -1 -34 -8 -40z"/>
<path d="M1269 1179 l-22 -32 22 -18 c13 -11 27 -19 31 -19 8 0 63 80 58 85
-2 1 -17 6 -34 9 -28 6 -35 3 -55 -25z"/>
<path d="M3653 1203 c-29 -6 -29 -10 2 -56 30 -43 34 -44 66 -18 l24 19 -21
29 c-22 29 -34 33 -71 26z"/>
<path d="M1365 1148 c-19 -29 -35 -55 -35 -58 0 -3 13 -13 29 -23 l29 -17 46
68 c46 66 46 67 24 74 -47 13 -58 8 -93 -44z"/>
<path d="M3538 1191 l-27 -6 46 -67 46 -67 29 15 c15 8 28 20 28 27 -1 19 -69
107 -83 106 -6 -1 -24 -4 -39 -8z"/>
<path d="M3437 1181 l-27 -6 55 -82 c30 -46 61 -83 68 -83 7 0 21 6 31 13 17
13 16 18 -30 85 -27 39 -53 73 -59 75 -5 2 -22 1 -38 -2z"/>
<path d="M1487 1148 c-13 -18 -36 -51 -50 -72 -24 -37 -25 -40 -9 -52 31 -24
47 -15 86 49 21 34 46 72 54 85 14 21 13 22 -21 22 -29 0 -41 -6 -60 -32z"/>
</g>
</svg>
